<svg width="111" height="40" viewBox="0 0 111 40" fill="none" xmlns="http://www.w3.org/2000/svg">
<g clip-path="url(#clip0_2079_4506)">
<path d="M103 0H8C3.58172 0 0 3.58172 0 8V32C0 36.4183 3.58172 40 8 40H103C107.418 40 111 36.4183 111 32V8C111 3.58172 107.418 0 103 0Z" fill="white"/>
<path d="M26.736 19.603C26.7448 18.9208 26.926 18.2519 27.2627 17.6585C27.5995 17.0651 28.0808 16.5665 28.662 16.209C28.2927 15.6815 27.8055 15.2474 27.239 14.9412C26.6726 14.635 26.0426 14.4651 25.399 14.445C24.026 14.301 22.699 15.266 21.999 15.266C21.299 15.266 20.209 14.459 19.049 14.483C18.2987 14.5072 17.5675 14.7253 16.9266 15.1161C16.2857 15.5069 15.757 16.0571 15.392 16.713C13.811 19.45 14.992 23.473 16.505 25.686C17.263 26.769 18.148 27.98 19.305 27.937C20.439 27.89 20.862 27.214 22.231 27.214C23.6 27.214 23.984 27.937 25.167 27.914C26.384 27.894 27.15 26.826 27.882 25.732C28.4263 24.96 28.8451 24.1068 29.123 23.204C28.4152 22.9048 27.8113 22.4037 27.3868 21.7632C26.9622 21.1228 26.7359 20.3714 26.736 19.603Z" fill="#111111"/>
<path d="M24.504 12.99C25.1675 12.1935 25.4943 11.1697 25.415 10.136C24.4015 10.2426 23.4653 10.7271 22.793 11.493C22.4642 11.8672 22.2124 12.3024 22.052 12.774C21.8915 13.2455 21.8256 13.744 21.858 14.241C22.3649 14.2462 22.8665 14.1364 23.3248 13.9197C23.7831 13.703 24.1863 13.3851 24.504 12.99Z" fill="#111111"/>
<path d="M42.059 25.194H38.194L37.265 27.938H35.621L39.286 17.786H40.986L44.654 27.938H42.988L42.059 25.194ZM38.594 23.928H41.661L40.149 19.475H40.107L38.594 23.928Z" fill="#111111"/>
<path d="M52.567 24.238C52.567 26.538 51.336 28.016 49.478 28.016C49.0073 28.0407 48.5392 27.9323 48.1273 27.7033C47.7154 27.4742 47.3764 27.1338 47.149 26.721H47.114V30.387H45.598V20.537H47.067V21.768H47.095C47.3329 21.3573 47.6777 21.0187 48.0927 20.7884C48.5078 20.558 48.9775 20.4446 49.452 20.46C51.332 20.459 52.567 21.944 52.567 24.238ZM51.005 24.238C51.005 22.738 50.231 21.754 49.049 21.754C47.888 21.754 47.107 22.76 47.107 24.238C47.107 25.716 47.888 26.728 49.049 26.728C50.234 26.728 51.009 25.75 51.009 24.238H51.005Z" fill="#111111"/>
<path d="M60.717 24.238C60.717 26.538 59.486 28.016 57.628 28.016C57.1573 28.0407 56.6892 27.9323 56.2773 27.7033C55.8654 27.4742 55.5264 27.1338 55.299 26.721H55.264V30.387H53.749V20.537H55.22V21.768H55.248C55.4859 21.3573 55.8307 21.0187 56.2457 20.7884C56.6608 20.558 57.1305 20.4446 57.605 20.46C59.479 20.459 60.717 21.944 60.717 24.238ZM59.155 24.238C59.155 22.738 58.381 21.754 57.199 21.754C56.038 21.754 55.257 22.76 55.257 24.238C55.257 25.716 56.038 26.728 57.199 26.728C58.381 26.728 59.155 25.75 59.155 24.238Z" fill="#111111"/>
<path d="M66.1 25.109C66.213 26.116 67.191 26.777 68.527 26.777C69.808 26.777 70.727 26.116 70.727 25.208C70.727 24.42 70.171 23.948 68.856 23.625L67.54 23.308C65.676 22.858 64.81 21.986 64.81 20.571C64.81 18.819 66.336 17.616 68.504 17.616C70.649 17.616 72.12 18.816 72.169 20.571H70.637C70.545 19.558 69.708 18.946 68.484 18.946C67.26 18.946 66.423 19.565 66.423 20.465C66.423 21.183 66.958 21.605 68.266 21.928L69.384 22.203C71.467 22.696 72.332 23.532 72.332 25.017C72.332 26.917 70.819 28.106 68.413 28.106C66.162 28.106 64.642 26.944 64.543 25.106L66.1 25.109Z" fill="#111111"/>
<path d="M75.613 18.785V20.537H77.02V21.737H75.613V25.817C75.613 26.451 75.895 26.746 76.513 26.746C76.6802 26.7431 76.8471 26.7315 77.013 26.711V27.911C76.7348 27.9629 76.452 27.9864 76.169 27.981C74.669 27.981 74.086 27.418 74.086 25.981V21.739H73.011V20.539H74.087V18.785H75.613Z" fill="#111111"/>
<path d="M77.835 24.237C77.835 21.908 79.207 20.445 81.345 20.445C83.483 20.445 84.856 21.908 84.856 24.237C84.856 26.566 83.498 28.029 81.345 28.029C79.192 28.029 77.835 26.572 77.835 24.237ZM83.308 24.237C83.308 22.637 82.576 21.697 81.345 21.697C80.114 21.697 79.383 22.647 79.383 24.237C79.383 25.827 80.114 26.777 81.345 26.777C82.576 26.777 83.308 25.841 83.308 24.237Z" fill="#111111"/>
<path d="M86.1089 20.537H87.558V21.797H87.5929C87.691 21.4036 87.9214 21.056 88.2456 20.8125C88.5697 20.569 88.9678 20.4445 89.3729 20.46C89.5482 20.4595 89.723 20.4786 89.894 20.517V21.938C89.6728 21.8704 89.4421 21.8393 89.211 21.846C88.9905 21.8371 88.7708 21.876 88.5668 21.96C88.3628 22.0439 88.1793 22.171 88.029 22.3324C87.8787 22.4939 87.765 22.6859 87.6958 22.8954C87.6266 23.1048 87.6034 23.3268 87.628 23.546V27.936H86.1089V20.537Z" fill="#111111"/>
<path d="M96.899 25.764C96.7321 26.4636 96.3172 27.0788 95.731 27.4955C95.1449 27.9123 94.4275 28.1022 93.712 28.03C91.559 28.03 90.222 26.587 90.222 24.273C90.222 21.959 91.566 20.446 93.648 20.446C95.696 20.446 96.983 21.853 96.983 24.097V24.614H91.755V24.706C91.7304 24.9787 91.7641 25.2534 91.854 25.512C91.9438 25.7706 92.0877 26.0072 92.276 26.2058C92.4644 26.4045 92.6929 26.5608 92.9464 26.6643C93.1998 26.7677 93.4724 26.8161 93.746 26.806C94.105 26.8397 94.4652 26.7566 94.7731 26.569C95.0811 26.3814 95.3202 26.0994 95.455 25.765L96.899 25.764ZM91.763 23.555H95.463C95.4765 23.3102 95.4394 23.0652 95.3538 22.8354C95.2682 22.6056 95.136 22.3959 94.9656 22.2196C94.7952 22.0433 94.5902 21.9041 94.3635 21.8107C94.1367 21.7173 93.8931 21.6718 93.648 21.677C93.4006 21.6756 93.1554 21.7231 92.9265 21.8169C92.6976 21.9106 92.4896 22.0488 92.3143 22.2234C92.1391 22.398 92.0002 22.6055 91.9055 22.8341C91.8109 23.0626 91.7625 23.3077 91.763 23.555Z" fill="#111111"/>
<path d="M36.078 14.515V9.63702H38.039C38.955 9.63702 39.506 10.103 39.506 10.854C39.5071 11.1012 39.4225 11.3411 39.2666 11.5329C39.1107 11.7247 38.8932 11.8565 38.651 11.906V11.963C38.951 11.9768 39.2338 12.107 39.4392 12.3261C39.6447 12.5452 39.7565 12.8358 39.751 13.136C39.751 13.995 39.126 14.519 38.084 14.519L36.078 14.515ZM36.836 11.702H37.736C38.406 11.702 38.754 11.455 38.754 10.992C38.754 10.529 38.426 10.279 37.865 10.279H36.836V11.702ZM37.936 13.872C38.619 13.872 38.98 13.595 38.98 13.078C38.98 12.561 38.605 12.3 37.892 12.3H36.836V13.872H37.936Z" fill="#111111"/>
<path d="M40.527 13.474C40.527 12.811 41.02 12.429 41.896 12.374L42.896 12.317V11.999C42.896 11.61 42.639 11.391 42.142 11.391C41.736 11.391 41.455 11.54 41.375 11.8H40.675C40.749 11.168 41.344 10.762 42.175 10.762C43.098 10.762 43.618 11.221 43.618 11.999V14.515H42.918V13.998H42.861C42.7443 14.1836 42.5804 14.3349 42.3861 14.4364C42.1918 14.538 41.974 14.5861 41.755 14.576C41.6006 14.5921 41.4445 14.5756 41.2969 14.5277C41.1492 14.4799 41.0133 14.4016 40.8977 14.298C40.7821 14.1944 40.6895 14.0677 40.6258 13.9261C40.5622 13.7846 40.5288 13.6312 40.528 13.476L40.527 13.474ZM42.893 13.159V12.855L41.993 12.912C41.486 12.946 41.256 13.118 41.256 13.443C41.256 13.768 41.543 13.967 41.939 13.967C42.0544 13.9787 42.171 13.9671 42.2818 13.933C42.3927 13.8988 42.4955 13.8428 42.5844 13.7682C42.6732 13.6937 42.7462 13.602 42.7991 13.4988C42.8519 13.3955 42.8835 13.2827 42.892 13.167L42.893 13.159Z" fill="#111111"/>
<path d="M44.66 9.74601C44.6543 9.65182 44.6772 9.55812 44.7254 9.47705C44.7737 9.39597 44.8452 9.33127 44.9307 9.29132C45.0162 9.25136 45.1117 9.23801 45.2048 9.25297C45.298 9.26794 45.3845 9.31055 45.4532 9.37526C45.5218 9.43998 45.5695 9.52383 45.5899 9.61594C45.6104 9.70806 45.6027 9.80419 45.5679 9.89188C45.533 9.97957 45.4727 10.0548 45.3946 10.1078C45.3165 10.1607 45.2243 10.189 45.13 10.189C45.0697 10.1921 45.0094 10.183 44.9528 10.1622C44.8961 10.1414 44.8443 10.1093 44.8003 10.0679C44.7564 10.0265 44.7213 9.97663 44.6972 9.92131C44.6731 9.86599 44.6604 9.80636 44.66 9.74601ZM44.768 10.835H45.491V14.516H44.767L44.768 10.835Z" fill="#111111"/>
<path d="M47.984 13.21L47.184 14.51H46.384L47.605 12.678L46.374 10.829H47.223L48.014 12.129H48.071L48.855 10.829H49.663L48.45 12.648L49.677 14.511H48.843L48.043 13.211L47.984 13.21Z" fill="#111111"/>
<path d="M50.316 13.474C50.316 12.811 50.809 12.429 51.685 12.374L52.685 12.317V11.999C52.685 11.61 52.428 11.391 51.931 11.391C51.525 11.391 51.244 11.54 51.164 11.8H50.464C50.538 11.168 51.133 10.762 51.964 10.762C52.887 10.762 53.407 11.221 53.407 11.999V14.515H52.707V13.998H52.65C52.5332 14.1836 52.3694 14.3349 52.1751 14.4364C51.9808 14.538 51.763 14.5861 51.544 14.576C51.3896 14.5921 51.2335 14.5756 51.0859 14.5277C50.9382 14.4799 50.8023 14.4016 50.6867 14.298C50.5711 14.1944 50.4785 14.0677 50.4148 13.9261C50.3511 13.7846 50.3178 13.6312 50.317 13.476L50.316 13.474ZM52.682 13.159V12.855L51.782 12.912C51.275 12.946 51.045 13.118 51.045 13.443C51.045 13.768 51.332 13.967 51.728 13.967C51.8434 13.9787 51.96 13.9671 52.0708 13.933C52.1817 13.8988 52.2846 13.8428 52.3734 13.7682C52.4622 13.6937 52.5352 13.602 52.5881 13.4988C52.6409 13.3955 52.6725 13.2827 52.681 13.167L52.682 13.159Z" fill="#111111"/>
<path d="M54.543 10.835H55.243V11.399H55.297C55.3756 11.2033 55.5141 11.0375 55.6926 10.9253C55.8711 10.813 56.0805 10.7601 56.291 10.774C56.3997 10.7724 56.5083 10.7825 56.615 10.804V11.521C56.4815 11.4925 56.3455 11.4777 56.209 11.477C56.0892 11.4663 55.9684 11.4807 55.8545 11.5194C55.7406 11.558 55.6361 11.6201 55.5476 11.7015C55.4591 11.783 55.3886 11.882 55.3406 11.9923C55.2926 12.1026 55.2682 12.2217 55.269 12.342V14.515H54.543V10.835Z" fill="#111111"/>
<path d="M59.415 10.834H60.115V11.419H60.169C60.2609 11.2085 60.4164 11.032 60.6137 10.9144C60.8109 10.7968 61.0401 10.7438 61.269 10.763C61.4479 10.7501 61.6275 10.7775 61.7945 10.8431C61.9615 10.9088 62.1116 11.011 62.2338 11.1424C62.3561 11.2737 62.4473 11.4308 62.5008 11.6021C62.5543 11.7733 62.5687 11.9544 62.543 12.132V14.515H61.817V12.315C61.817 11.723 61.56 11.429 61.023 11.429C60.9013 11.4233 60.7799 11.4439 60.667 11.4895C60.5541 11.5352 60.4524 11.6047 60.3689 11.6933C60.2854 11.7819 60.222 11.8876 60.1832 12.003C60.1444 12.1185 60.131 12.2409 60.144 12.362V14.516H59.417L59.415 10.834Z" fill="#111111"/>
<path d="M63.456 13.474C63.456 12.811 63.949 12.429 64.825 12.374L65.825 12.317V11.999C65.825 11.61 65.568 11.391 65.071 11.391C64.665 11.391 64.384 11.54 64.304 11.8H63.604C63.678 11.168 64.273 10.762 65.104 10.762C66.027 10.762 66.547 11.221 66.547 11.999V14.515H65.847V13.998H65.79C65.6733 14.1836 65.5094 14.3349 65.3151 14.4364C65.1208 14.538 64.903 14.5861 64.684 14.576C64.5296 14.5921 64.3736 14.5756 64.2259 14.5277C64.0783 14.4799 63.9423 14.4016 63.8267 14.298C63.7111 14.1944 63.6185 14.0677 63.5548 13.9261C63.4912 13.7846 63.4578 13.6312 63.457 13.476L63.456 13.474ZM65.822 13.159V12.855L64.922 12.912C64.415 12.946 64.185 13.118 64.185 13.443C64.185 13.768 64.472 13.967 64.868 13.967C64.9834 13.9787 65.1 13.9671 65.2108 13.933C65.3217 13.8988 65.4246 13.8428 65.5134 13.7682C65.6022 13.6937 65.6752 13.602 65.7281 13.4988C65.7809 13.3955 65.8125 13.2827 65.821 13.167L65.822 13.159Z" fill="#111111"/>
</g>
<defs>
<clipPath id="clip0_2079_4506">
<rect width="111" height="40" fill="white"/>
</clipPath>
</defs>
</svg>
