<svg width="111" height="40" viewBox="0 0 111 40" fill="none" xmlns="http://www.w3.org/2000/svg">
<g clip-path="url(#clip0_2079_4485)">
<path d="M103 0H8C3.58172 0 0 3.58172 0 8V32C0 36.4183 3.58172 40 8 40H103C107.418 40 111 36.4183 111 32V8C111 3.58172 107.418 0 103 0Z" fill="white"/>
<path d="M20.661 20.108L12.733 28.522C12.733 28.522 12.733 28.522 12.733 28.527C12.8187 28.8454 12.9768 29.1398 13.1949 29.3871C13.413 29.6345 13.6853 29.8282 13.9905 29.9531C14.2957 30.078 14.6256 30.1308 14.9545 30.1074C15.2835 30.084 15.6026 29.9849 15.887 29.818L15.912 29.803L24.835 24.654L20.661 20.108Z" fill="#DA1E1C"/>
<path d="M28.68 18.675L28.673 18.67L24.821 16.437L20.481 20.299L24.837 24.653L28.669 22.442C29.0089 22.2592 29.2932 21.9881 29.4918 21.6571C29.6903 21.3262 29.7959 20.9478 29.7972 20.5619C29.7985 20.1759 29.6956 19.7968 29.4993 19.4645C29.303 19.1322 29.0206 18.8591 28.682 18.674" fill="#FEAD00"/>
<path d="M12.733 12.552C12.6843 12.7316 12.6598 12.9169 12.66 13.103V27.971C12.6597 28.1568 12.6846 28.3418 12.734 28.521L20.934 20.321L12.733 12.552Z" fill="#396BB2"/>
<path d="M20.72 20.537L24.82 16.437L15.907 11.269C15.6223 11.098 15.3019 10.9955 14.9709 10.9694C14.64 10.9433 14.3074 10.9944 13.9995 11.1187C13.6917 11.243 13.4168 11.437 13.1967 11.6856C12.9766 11.9341 12.8171 12.2304 12.731 12.551L20.72 20.537Z" fill="#3B9030"/>
<path d="M55.969 21.841C55.3431 21.8434 54.732 22.0311 54.2128 22.3806C53.6936 22.73 53.2895 23.2254 53.0516 23.8043C52.8138 24.3832 52.7528 25.0196 52.8763 25.6332C52.9999 26.2467 53.3024 26.8099 53.7458 27.2516C54.1892 27.6933 54.7535 27.9938 55.3675 28.115C55.9815 28.2362 56.6177 28.1728 57.1957 27.9328C57.7737 27.6927 58.2676 27.2868 58.6151 26.7662C58.9625 26.2457 59.148 25.6339 59.148 25.008C59.1541 24.5894 59.0759 24.1739 58.9182 23.7861C58.7604 23.3983 58.5263 23.0462 58.2297 22.7507C57.9331 22.4553 57.5802 22.2225 57.1918 22.0662C56.8034 21.9099 56.3876 21.8333 55.969 21.841ZM55.969 26.927C55.5836 26.9545 55.1988 26.8654 54.8648 26.6711C54.5308 26.4769 54.263 26.1866 54.0963 25.8381C53.9296 25.4895 53.8717 25.0988 53.9301 24.7169C53.9886 24.335 54.1606 23.9795 54.424 23.6967C54.6873 23.4139 55.0296 23.217 55.4064 23.1315C55.7832 23.0461 56.177 23.076 56.5366 23.2175C56.8961 23.359 57.2047 23.6055 57.4222 23.9248C57.6397 24.2442 57.756 24.6216 57.756 25.008C57.7677 25.2521 57.7304 25.496 57.6464 25.7254C57.5624 25.9549 57.4333 26.1652 57.2668 26.344C57.1003 26.5228 56.8997 26.6665 56.6768 26.7666C56.4539 26.8668 56.2132 26.9213 55.969 26.927ZM49.034 21.841C48.4081 21.8434 47.797 22.0311 47.2778 22.3806C46.7585 22.73 46.3545 23.2254 46.1166 23.8043C45.8788 24.3832 45.8178 25.0196 45.9413 25.6332C46.0649 26.2467 46.3674 26.8099 46.8108 27.2516C47.2542 27.6933 47.8185 27.9938 48.4325 28.115C49.0465 28.2362 49.6827 28.1728 50.2607 27.9328C50.8387 27.6927 51.3326 27.2868 51.6801 26.7662C52.0275 26.2457 52.213 25.6339 52.213 25.008C52.2191 24.5894 52.141 24.1739 51.9832 23.7861C51.8254 23.3983 51.5913 23.0462 51.2947 22.7507C50.9981 22.4553 50.6452 22.2225 50.2568 22.0662C49.8684 21.9099 49.4526 21.8333 49.034 21.841ZM49.034 26.927C48.6486 26.9543 48.2639 26.865 47.9301 26.6706C47.5962 26.4763 47.3285 26.1859 47.162 25.8373C46.9954 25.4887 46.9377 25.098 46.9962 24.7162C47.0548 24.3343 47.2269 23.9789 47.4903 23.6962C47.7537 23.4136 48.096 23.2168 48.4728 23.1314C48.8496 23.046 49.2434 23.076 49.6028 23.2176C49.9623 23.3591 50.2709 23.6056 50.4883 23.9249C50.7058 24.2443 50.822 24.6217 50.822 25.008C50.8337 25.2521 50.7964 25.4962 50.7123 25.7257C50.6282 25.9552 50.4991 26.1655 50.3324 26.3443C50.1658 26.5232 49.9651 26.6669 49.7421 26.7669C49.5191 26.867 49.2783 26.9214 49.034 26.927ZM40.785 22.813V24.156H44.001C43.955 24.786 43.6974 25.3819 43.27 25.847C42.9479 26.1755 42.5605 26.4327 42.1328 26.6022C41.7051 26.7717 41.2467 26.8496 40.787 26.831C39.8493 26.8153 38.9554 26.4318 38.2978 25.7632C37.6403 25.0945 37.2718 24.1943 37.2718 23.2565C37.2718 22.3187 37.6403 21.4185 38.2978 20.7498C38.9554 20.0812 39.8493 19.6977 40.787 19.682C41.6895 19.6699 42.5602 20.0146 43.21 20.641L44.158 19.694C43.7146 19.255 43.1881 18.9089 42.6092 18.6761C42.0304 18.4432 41.4108 18.3283 40.787 18.338C40.1352 18.3287 39.488 18.4491 38.8831 18.6921C38.2782 18.9351 37.7277 19.2959 37.2635 19.7535C36.7993 20.2112 36.4306 20.7565 36.179 21.3579C35.9274 21.9593 35.7979 22.6046 35.7979 23.2565C35.7979 23.9084 35.9274 24.5538 36.179 25.1551C36.4306 25.7565 36.7993 26.3018 37.2635 26.7595C37.7277 27.2171 38.2782 27.5779 38.8831 27.8209C39.488 28.0639 40.1352 28.1843 40.787 28.175C41.4238 28.201 42.0589 28.0914 42.6503 27.8535C43.2416 27.6156 43.7756 27.2548 44.217 26.795C45.0008 25.9397 45.4186 24.8115 45.381 23.652C45.3842 23.3707 45.3601 23.0897 45.309 22.813H40.785ZM74.521 23.856C74.3307 23.2823 73.9685 22.7811 73.4834 22.4204C72.9984 22.0598 72.4142 21.8571 71.81 21.84C71.4031 21.8426 71.0009 21.9276 70.6278 22.09C70.2547 22.2523 69.9184 22.4887 69.6392 22.7847C69.36 23.0807 69.1437 23.4303 69.0034 23.8122C68.8631 24.1942 68.8018 24.6006 68.823 25.007C68.8139 25.4233 68.8889 25.8371 69.0432 26.2238C69.1976 26.6104 69.4283 26.9621 69.7216 27.2576C70.0148 27.5532 70.3646 27.7867 70.75 27.9441C71.1355 28.1016 71.5487 28.1797 71.965 28.174C72.4865 28.1773 73.0007 28.0511 73.4614 27.8067C73.9222 27.5624 74.3151 27.2076 74.605 26.774L73.525 26.054C73.3632 26.3227 73.1343 26.5448 72.8609 26.6984C72.5874 26.8519 72.2786 26.9318 71.965 26.93C71.6425 26.9422 71.3238 26.8572 71.0502 26.6863C70.7765 26.5153 70.5605 26.2661 70.43 25.971L74.665 24.219L74.521 23.856ZM70.201 24.912C70.1861 24.6816 70.2174 24.4505 70.2929 24.2323C70.3684 24.014 70.4866 23.8131 70.6407 23.6411C70.7948 23.4691 70.9817 23.3296 71.1904 23.2307C71.399 23.1317 71.6253 23.0754 71.856 23.065C72.0964 23.049 72.3361 23.1042 72.5453 23.2237C72.7545 23.3432 72.9238 23.5218 73.032 23.737L70.201 24.912ZM66.758 27.983H68.15V18.674H66.758V27.983ZM64.479 22.549H64.431C64.2193 22.3194 63.9611 22.1376 63.6737 22.0155C63.3863 21.8934 63.0762 21.834 62.764 21.841C61.9479 21.8765 61.177 22.2257 60.6121 22.8158C60.0472 23.4058 59.7319 24.1911 59.7319 25.008C59.7319 25.8249 60.0472 26.6102 60.6121 27.2002C61.177 27.7903 61.9479 28.1395 62.764 28.175C63.0775 28.1834 63.389 28.1233 63.6769 27.999C63.9648 27.8746 64.2222 27.689 64.431 27.455H64.479V27.911C64.479 29.123 63.832 29.77 62.788 29.77C62.4394 29.7627 62.101 29.6515 61.8159 29.4507C61.5309 29.25 61.3123 28.9687 61.188 28.643L59.977 29.143C60.2054 29.6989 60.5946 30.174 61.0947 30.5073C61.5948 30.8406 62.183 31.0171 62.784 31.014C64.415 31.014 65.795 30.054 65.795 27.714V22.033H64.475L64.479 22.549ZM62.884 26.927C62.4033 26.8859 61.9556 26.6659 61.6293 26.3106C61.3031 25.9553 61.122 25.4904 61.122 25.008C61.122 24.5256 61.3031 24.0608 61.6293 23.7054C61.9556 23.3501 62.4033 23.1301 62.884 23.089C63.3503 23.1493 63.7787 23.3774 64.0891 23.7306C64.3995 24.0837 64.5707 24.5378 64.5707 25.008C64.5707 25.4782 64.3995 25.9323 64.0891 26.2855C63.7787 26.6386 63.3503 26.8667 62.884 26.927ZM81.038 18.675H77.711V27.983H79.101V24.456H81.042C81.4408 24.4875 81.8418 24.4361 82.2199 24.3051C82.5979 24.1741 82.9447 23.9663 83.2385 23.6948C83.5323 23.4233 83.7668 23.0939 83.9272 22.7274C84.0875 22.3608 84.1703 21.9651 84.1703 21.565C84.1703 21.1649 84.0875 20.7692 83.9272 20.4027C83.7668 20.0361 83.5323 19.7067 83.2385 19.4352C82.9447 19.1637 82.5979 18.9559 82.2199 18.8249C81.8418 18.6939 81.4408 18.6425 81.042 18.674M81.078 23.16H79.101V19.969H81.077C81.2966 19.9525 81.5172 19.9815 81.7251 20.0542C81.933 20.1269 82.1236 20.2417 82.285 20.3915C82.4465 20.5413 82.5753 20.7228 82.6634 20.9246C82.7514 21.1264 82.7969 21.3443 82.7969 21.5645C82.7969 21.7847 82.7514 22.0026 82.6634 22.2044C82.5753 22.4063 82.4465 22.5877 82.285 22.7375C82.1236 22.8873 81.933 23.0021 81.7251 23.0748C81.5172 23.1475 81.2966 23.1765 81.077 23.16M89.664 21.824C89.1569 21.7943 88.6521 21.9132 88.2116 22.1661C87.7711 22.4191 87.4139 22.7951 87.184 23.248L88.418 23.763C88.5402 23.5379 88.7255 23.3534 88.9511 23.2321C89.1767 23.1108 89.4328 23.0579 89.688 23.08C90.0408 23.0457 90.3928 23.1528 90.6667 23.3778C90.9406 23.6028 91.1141 23.9273 91.149 24.28V24.38C90.7028 24.1432 90.2051 24.02 89.7 24.021C88.371 24.021 87.017 24.751 87.017 26.121C87.0298 26.4087 87.1003 26.691 87.2243 26.9509C87.3484 27.2109 87.5233 27.4433 87.7389 27.6343C87.9544 27.8253 88.2062 27.9711 88.4792 28.0629C88.7522 28.1548 89.0408 28.1909 89.328 28.169C89.6779 28.1897 90.0269 28.1162 90.3388 27.9562C90.6506 27.7961 90.9138 27.5554 91.101 27.259H91.149V27.964H92.49V24.398C92.495 24.0367 92.4233 23.6785 92.2796 23.347C92.1359 23.0154 91.9235 22.7182 91.6564 22.4749C91.3892 22.2316 91.0735 22.0478 90.7301 21.9356C90.3866 21.8234 90.0232 21.7853 89.664 21.824ZM89.496 26.924C89.04 26.924 88.406 26.696 88.406 26.133C88.406 25.415 89.196 25.14 89.879 25.14C90.3225 25.1281 90.7611 25.2355 91.149 25.451C91.098 25.8547 90.9027 26.2262 90.599 26.497C90.2953 26.7678 89.9028 26.9195 89.496 26.924ZM97.376 22.024L95.782 26.064H95.734L94.081 22.028H92.581L95.06 27.668L93.647 30.806H95.101L98.921 22.028L97.376 22.024ZM84.861 27.979H86.25V18.674H84.861V27.979Z" fill="#111111"/>
<path d="M36.348 10.786H37.831C38.2669 10.7754 38.6984 10.8755 39.085 11.077C39.4337 11.2638 39.7199 11.549 39.908 11.897C40.0975 12.2715 40.1962 12.6853 40.1962 13.105C40.1962 13.5247 40.0975 13.9385 39.908 14.313C39.72 14.6611 39.4338 14.9462 39.085 15.133C38.6984 15.3345 38.2669 15.4346 37.831 15.424H36.348V10.786ZM37.812 14.747C38.0356 14.7608 38.2597 14.7292 38.4707 14.654C38.6817 14.5789 38.8754 14.4619 39.04 14.31C39.3224 13.9708 39.4771 13.5434 39.4771 13.102C39.4771 12.6606 39.3224 12.2332 39.04 11.894C38.8754 11.742 38.6818 11.6249 38.4707 11.5498C38.2597 11.4747 38.0356 11.4431 37.812 11.457H37.061V14.747H37.812Z" fill="#041E40"/>
<path d="M41.834 10.786H41.121V15.424H41.834V10.786Z" fill="#041E40"/>
<path d="M43.322 15.191C43.0084 14.9564 42.7826 14.6232 42.681 14.245L43.354 13.973C43.4134 14.2157 43.5415 14.4362 43.723 14.608C43.8966 14.7708 44.127 14.8591 44.365 14.854C44.5772 14.8608 44.7857 14.7971 44.958 14.673C45.0366 14.6162 45.0999 14.5408 45.1423 14.4535C45.1847 14.3663 45.2049 14.2699 45.201 14.173C45.2031 14.0817 45.185 13.9911 45.148 13.9076C45.111 13.8241 45.056 13.7498 44.987 13.69C44.7659 13.5217 44.5158 13.3956 44.249 13.318L43.958 13.218C43.6652 13.119 43.3969 12.9588 43.171 12.748C43.0655 12.6441 42.9831 12.5192 42.929 12.3813C42.8749 12.2435 42.8504 12.0959 42.857 11.948C42.8556 11.723 42.9196 11.5024 43.041 11.313C43.1681 11.115 43.3473 10.9558 43.559 10.853C43.7938 10.738 44.0526 10.6805 44.314 10.685C44.6602 10.6677 45.0016 10.772 45.279 10.98C45.5019 11.1509 45.6724 11.381 45.771 11.644L45.13 11.916C45.0839 11.7573 44.9886 11.6172 44.858 11.516C44.704 11.3984 44.5136 11.3386 44.32 11.347C44.1267 11.3413 43.9372 11.4008 43.782 11.516C43.7133 11.5642 43.6575 11.6283 43.6191 11.7028C43.5808 11.7774 43.5612 11.8602 43.562 11.944C43.5612 12.0218 43.5789 12.0986 43.6137 12.1681C43.6485 12.2377 43.6993 12.298 43.762 12.344C43.9481 12.4769 44.1549 12.5783 44.374 12.644L44.674 12.744C45.0178 12.8504 45.3326 13.0345 45.594 13.282C45.7044 13.3995 45.79 13.5381 45.8457 13.6895C45.9014 13.8409 45.9259 14.0019 45.918 14.163C45.9272 14.4351 45.8464 14.7026 45.688 14.924C45.5371 15.1273 45.3334 15.2854 45.099 15.381C44.8659 15.4789 44.6158 15.5296 44.363 15.53C43.9901 15.5336 43.6263 15.4153 43.327 15.193" fill="#041E40"/>
<path d="M46.848 10.786H48.442C48.7067 10.7831 48.968 10.8453 49.203 10.967C49.4286 11.0828 49.619 11.2573 49.754 11.472C49.8875 11.6928 49.9581 11.9459 49.9581 12.204C49.9581 12.462 49.8875 12.7152 49.754 12.936C49.6191 13.1508 49.4287 13.3252 49.203 13.441C48.968 13.5626 48.7067 13.6248 48.442 13.622H47.561V15.422H46.849L46.848 10.786ZM48.461 12.95C48.5668 12.9545 48.6724 12.9369 48.7711 12.8983C48.8697 12.8597 48.9593 12.801 49.034 12.726C49.1028 12.6577 49.1574 12.5764 49.1946 12.4869C49.2319 12.3974 49.2511 12.3014 49.2511 12.2045C49.2511 12.1075 49.2319 12.0116 49.1946 11.922C49.1574 11.8325 49.1028 11.7513 49.034 11.683C48.9592 11.6081 48.8696 11.5497 48.7709 11.5113C48.6723 11.4729 48.5667 11.4554 48.461 11.46H47.561V12.946L48.461 12.95Z" fill="#041E40"/>
<path d="M51.739 15.204C51.3774 14.9938 51.0787 14.6907 50.874 14.326C50.6678 13.952 50.5597 13.532 50.5597 13.105C50.5597 12.678 50.6678 12.2579 50.874 11.884C51.0788 11.5194 51.3775 11.2163 51.739 11.006C52.0131 10.8439 52.3167 10.738 52.6322 10.6944C52.9476 10.6508 53.2686 10.6705 53.5764 10.7522C53.8842 10.8339 54.1726 10.9761 54.4249 11.1704C54.6772 11.3647 54.8883 11.6073 55.046 11.884C55.252 12.258 55.3601 12.678 55.3601 13.105C55.3601 13.532 55.252 13.952 55.046 14.326C54.7222 14.8792 54.1929 15.282 53.5734 15.4465C52.9539 15.611 52.2945 15.5238 51.739 15.204ZM53.815 14.631C54.0709 14.4831 54.2815 14.268 54.424 14.009C54.5707 13.7304 54.6475 13.4203 54.6475 13.1055C54.6475 12.7906 54.5707 12.4805 54.424 12.202C54.2815 11.943 54.0709 11.7279 53.815 11.58C53.5555 11.434 53.2627 11.3574 52.965 11.3574C52.6672 11.3574 52.3745 11.434 52.115 11.58C51.859 11.7279 51.6484 11.943 51.506 12.202C51.3592 12.4805 51.2825 12.7906 51.2825 13.1055C51.2825 13.4203 51.3592 13.7304 51.506 14.009C51.6485 14.2679 51.8591 14.483 52.115 14.631C52.3745 14.7768 52.6672 14.8535 52.965 14.8535C53.2627 14.8535 53.5554 14.7768 53.815 14.631Z" fill="#041E40"/>
<path d="M56.28 10.785H57.122L59.222 14.192H59.261L59.222 13.298V10.785H59.928V15.423H59.189L56.989 11.841H56.95L56.989 12.735V15.424H56.283L56.28 10.785Z" fill="#041E40"/>
<path d="M61.106 10.786H61.819V15.424H61.106V10.786ZM61.475 9.56799H62.265L61.747 10.417H61.17L61.475 9.56799Z" fill="#041E40"/>
<path d="M62.505 10.785H63.282L64.332 13.868L64.494 14.393H64.533L64.708 13.868L65.803 10.785H66.58L64.889 15.423H64.15L62.505 10.785Z" fill="#041E40"/>
<path d="M67.273 10.785H70.083V11.459H67.983V12.768H69.875V13.446H67.983V14.746H70.083V15.42H67.273V10.785Z" fill="#041E40"/>
<path d="M71.082 10.785H71.795V14.746H73.795V15.42H71.087L71.082 10.785Z" fill="#041E40"/>
<path d="M76.025 10.785H76.867L78.967 14.192H79.006L78.967 13.298V10.785H79.673V15.423H78.934L76.734 11.841H76.693L76.732 12.735V15.424H76.026L76.025 10.785Z" fill="#041E40"/>
<path d="M81.775 15.204C81.4134 14.9938 81.1147 14.6907 80.91 14.326C80.7038 13.952 80.5957 13.532 80.5957 13.105C80.5957 12.678 80.7038 12.2579 80.91 11.884C81.1148 11.5194 81.4135 11.2162 81.775 11.006C82.0491 10.8439 82.3528 10.738 82.6682 10.6944C82.9837 10.6508 83.3046 10.6705 83.6124 10.7522C83.9202 10.8339 84.2087 10.9761 84.461 11.1704C84.7133 11.3647 84.9244 11.6073 85.082 11.884C85.2881 12.258 85.3961 12.678 85.3961 13.105C85.3961 13.532 85.2881 13.952 85.082 14.326C84.7583 14.8792 84.2289 15.282 83.6094 15.4465C82.9899 15.611 82.3305 15.5238 81.775 15.204ZM83.851 14.631C84.1069 14.4831 84.3175 14.268 84.46 14.009C84.6068 13.7304 84.6835 13.4203 84.6835 13.1055C84.6835 12.7906 84.6068 12.4805 84.46 12.202C84.3175 11.943 84.1069 11.7279 83.851 11.58C83.5915 11.434 83.2988 11.3574 83.001 11.3574C82.7033 11.3574 82.4105 11.434 82.151 11.58C81.8951 11.728 81.6845 11.943 81.542 12.202C81.3952 12.4805 81.3185 12.7906 81.3185 13.1055C81.3185 13.4203 81.3952 13.7304 81.542 14.009C81.6845 14.2679 81.8951 14.483 82.151 14.631C82.4106 14.7768 82.7033 14.8535 83.001 14.8535C83.2987 14.8535 83.5914 14.7768 83.851 14.631Z" fill="#041E40"/>
</g>
<defs>
<clipPath id="clip0_2079_4485">
<rect width="111" height="40" fill="white"/>
</clipPath>
</defs>
</svg>
